<svg xmlns="http://www.w3.org/2000/svg" xmlns:svg="http://www.w3.org/2000/svg" id="svg11556" width="300" height="300.003" version="1.1" viewBox="0 0 300 300.003"><metadata id="metadata11561"/><g id="layer1" transform="translate(-511.8133,-474.83202)"><g style="fill:#231f20;fill-opacity:1" id="g8696" transform="matrix(4.2014854,0,0,-4.2014854,527.49329,728.79095)"><path id="path8698" d="m 0,0 0,-2.632 10.682,0 0,-2.793 -10.682,0 0,-4.973 -3.494,0 0,13.442 14.76,0 L 11.266,0 0,0 Z" style="fill:#231f20;fill-opacity:1;fill-rule:nonzero;stroke:none"/></g><g style="fill:#231f20;fill-opacity:1" id="g8708" transform="matrix(4.2014854,0,0,-4.2014854,809.9772,759.78111)"><path id="path8710" d="m 0,0 c -0.139,-0.773 -0.504,-1.465 -1.045,-1.97 -1.189,-1.108 -2.988,-1.144 -7.418,-1.144 -5.404,0 -6.836,0.036 -8.043,1.263 -0.873,0.892 -1.049,1.836 -1.049,5.186 0,0.747 0,1.487 0.02,2.256 0.062,2.029 0.367,3.064 1.148,3.828 0.989,0.923 2.364,1.167 7.18,1.167 0.602,0 1.789,-0.015 3.586,-0.054 2.516,-0.051 3.387,-0.19 4.35,-0.793 C -0.119,9.028 0.199,7.786 0.199,4.002 0.199,2.017 0.127,0.771 0,0 m -3.906,7.207 c -0.471,0.376 -2.362,0.413 -4.782,0.413 -1.669,0 -3.082,-0.037 -3.828,-0.1 -0.41,-0.032 -0.744,-0.132 -0.98,-0.313 -0.43,-0.334 -0.488,-0.812 -0.488,-3.311 0,-0.478 0,-0.966 0.023,-1.45 0.016,-1.257 0.094,-1.735 0.356,-2.038 0.167,-0.203 0.484,-0.342 0.871,-0.408 0.785,-0.132 2.433,-0.215 4.271,-0.215 2.801,0 4.178,0 4.656,0.527 0.34,0.376 0.426,1.001 0.426,3.643 0,0.828 0.098,2.72 -0.525,3.252" style="fill:#231f20;fill-opacity:1;fill-rule:nonzero;stroke:none"/></g><g style="fill:#231f20;fill-opacity:1" id="g8712" transform="matrix(4.2014854,0,0,-4.2014854,723.36278,768.79515)"><path id="path8714" d="m 0,0 c -0.645,-0.705 -1.414,-0.906 -2.965,-0.906 l -11.957,0 0,2.983 10.815,0 c 0.64,0 0.898,0 1.16,0.161 0.23,0.137 0.304,0.386 0.304,1.092 0,0.562 -0.064,0.739 -0.283,0.923 -0.199,0.161 -0.383,0.202 -1.07,0.202 l -6.807,0 c -1.816,0 -2.426,0.137 -3.168,0.728 -0.742,0.581 -1.027,1.572 -1.027,3.587 0,1.376 0.164,2.052 0.627,2.714 0.219,0.303 0.523,0.552 0.885,0.708 0.685,0.303 1.013,0.344 2.619,0.344 l 11.248,0 0,-2.897 -10.518,0 c -1.113,0 -1.334,-0.181 -1.334,-1.151 0,-0.874 0.287,-1.091 1.289,-1.091 l 7.032,0 c 2.041,0 3.189,-0.544 3.714,-1.752 C 0.828,5.046 0.926,4.353 0.926,3.169 0.926,1.569 0.686,0.744 0,0" style="fill:#231f20;fill-opacity:1;fill-rule:nonzero;stroke:none"/></g><g style="fill:#231f20;fill-opacity:1" id="g8716" transform="matrix(4.2014854,0,0,-4.2014854,646.21802,767.83116)"><path id="path8718" d="m 0,0 c -0.746,-1.001 -1.873,-1.392 -4.355,-1.409 l -2.254,-0.02 -2.799,0.02 c -2.621,0.017 -3.754,0.442 -4.576,1.619 -0.506,0.703 -0.707,1.606 -0.707,3.198 l 0,8.775 3.505,0 0,-8.431 c 0,-1.794 0.362,-2.075 2.524,-2.097 l 1.877,-0.019 1.828,0.041 c 1.992,0.044 2.256,0.301 2.256,2.461 l 0,8.045 3.547,0 0,-8.026 C 0.846,1.721 0.664,0.913 0,0" style="fill:#231f20;fill-opacity:1;fill-rule:nonzero;stroke:none"/></g><g id="g8720" transform="matrix(4.2014854,0,0,-4.2014854,695.04389,670.84817)"><path id="path8722" d="M 0,0 -17.871,30.918 -8.932,46.416 0,30.903 -0.02,30.918 -17.867,0 -35.73,0 l 8.929,15.464 35.719,0 L 17.992,0 0,0 Z" style="fill:#ee1d23;fill-opacity:1;fill-rule:nonzero;stroke:none"/></g></g></svg>