<?xml version="1.0" standalone="no"?>
<!DOCTYPE svg PUBLIC "-//W3C//DTD SVG 20010904//EN"
 "http://www.w3.org/TR/2001/REC-SVG-20010904/DTD/svg10.dtd">
<svg version="1.0" xmlns="http://www.w3.org/2000/svg"
 width="187.000000pt" height="187.000000pt" viewBox="0 0 187.000000 187.000000"
 preserveAspectRatio="xMidYMid meet">
<metadata>
Created by potrace 1.11, written by Peter Selinger 2001-2013
</metadata>
<g transform="translate(0.000000,187.000000) scale(0.100000,-0.100000)"
fill="#000000" stroke="none">
<path d="M690 1062 l0 -698 -47 -46 c-48 -47 -110 -81 -168 -93 -52 -10 -164
-6 -187 6 -13 7 -25 12 -28 11 -16 -3 -80 38 -119 75 -50 48 -49 48 -102 32
l-38 -12 26 -36 c35 -48 107 -106 168 -135 187 -89 422 -37 551 120 l40 49 -2
700 c-1 385 -2 706 -3 713 -1 7 -17 12 -46 12 l-45 0 0 -698z"/>
<path d="M1071 945 l0 -815 274 0 273 0 34 27 c149 121 230 302 214 485 -11
130 -73 265 -159 347 l-36 34 43 61 c71 103 94 169 94 279 0 132 -43 234 -138
330 l-68 67 -265 0 -266 0 0 -815z m518 696 c73 -52 124 -172 122 -285 -1 -99
-29 -170 -94 -242 l-45 -49 -201 -1 -200 0 -3 290 c-2 198 0 293 8 300 7 8 75
11 196 10 175 -1 187 -2 217 -23z m24 -702 c45 -37 98 -119 127 -194 23 -62
31 -184 16 -250 -21 -94 -139 -264 -184 -266 -78 -4 -386 -3 -392 1 -10 6 -12
63 -11 441 l1 296 204 0 205 0 34 -28z"/>
</g>
</svg>
