<?xml version="1.0" encoding="UTF-8" standalone="no"?>
<!DOCTYPE svg PUBLIC "-//W3C//DTD SVG 1.0//EN" "http://www.w3.org/TR/2001/REC-SVG-20010904/DTD/svg10.dtd">
<!-- Created with Inkscape (http://www.inkscape.org/) -->
<svg
   xmlns:svg="http://www.w3.org/2000/svg"
   xmlns="http://www.w3.org/2000/svg"
   version="1.0"
   width="440"
   height="500"
   id="svg2857">
  <defs
     id="defs2859" />
  <g
     id="layer1">
    <g
       transform="matrix(1.4671145,0,0,1.4671145,-157.25801,-69.94315)"
       id="g2873">
      <path
         d="M 178.63716,293.46007 L 178.58577,293.60083 L 180.43127,294.20185 L 180.69045,293.46231 L 178.63716,293.46007"
         id="path2432"
         style="fill:#ed1c24;fill-opacity:1;fill-rule:evenodd;stroke:none" />
      <path
         d="M 234.71491,293.46231 C 234.88025,293.46231 328.1719,293.46231 328.1719,293.46231 C 328.1719,293.30591 328.17635,141.13476 328.17635,141.13476 C 313.7028,141.98154 279.39572,136.51877 257.22288,110.98785 C 256.75145,114.88888 234.70374,293.4556 234.71491,293.46231"
         id="path2434"
         style="fill:#ed1c24;fill-opacity:1;fill-rule:evenodd;stroke:none" />
      <path
         d="M 180.69045,293.46231 C 180.94069,293.46231 232.76887,293.48688 232.76887,293.46231 C 232.95432,291.38891 255.76167,106.15738 255.76167,106.15738 C 257.30554,107.95819 274.80654,132.14855 311.52216,138.15425 C 287.9306,129.74896 262.19634,106.41432 252.58678,79.819892 C 251.64392,82.824975 180.69045,293.46231 180.69045,293.46231"
         id="path2436"
         style="fill:#ed1c24;fill-opacity:1;fill-rule:evenodd;stroke:none" />
      <path
         d="M 178.63716,293.46007 C 177.57589,293.46231 115.13942,293.45114 115.13942,293.45114 C 115.52818,292.81884 260.73514,54.490057 260.73514,54.490057 C 260.58544,88.801627 281.79976,109.69421 283.47099,112.07594 C 285.43044,113.75164 296.33811,127.68897 322.62423,138.91837 C 316.0689,137.63814 299.16892,135.28546 276.16048,112.04466 C 268.8969,105.01567 257.08659,90.65383 252.59572,73.570659 C 250.99375,78.14196 178.63716,293.46007 178.63716,293.46007"
         id="path2438"
         style="fill:#ed1c24;fill-opacity:1;fill-rule:evenodd;stroke:none" />
      <path
         d="M 232.77334,293.46231 L 234.71268,293.46454 L 234.61661,294.35601 L 232.67503,294.26888 L 232.77334,293.46231"
         id="path2440"
         style="fill:#ed1c24;fill-opacity:1;fill-rule:evenodd;stroke:none" />
      <path
         d="M 327.27373,141.81174 L 366.91846,288.65194 L 163.51791,341.17051 L 179.54874,293.78851 M 327.31171,141.61289 L 398.60254,277.59011 L 222.92248,381.11913 L 233.66034,294.19515"
         id="path2450"
         style="fill:none;stroke:#ed1c24;stroke-width:1.08750272;stroke-linecap:butt;stroke-linejoin:miter;stroke-miterlimit:3.86400008;stroke-dasharray:none;stroke-opacity:1" />
    </g>
  </g>
</svg>
